{
    "accessors": {
        "accessor_16": {
            "bufferView": "bufferView_22",
            "byteOffset": 0,
            "byteStride": 0,
            "componentType": 5123,
            "count": 120,
            "type": "SCALAR"
        },
        "accessor_18": {
            "bufferView": "bufferView_23",
            "byteOffset": 0,
            "byteStride": 12,
            "componentType": 5126,
            "count": 66,
            "max": [
                10.7545,
                27.9921,
                22.2494
            ],
            "min": [
                -51.6433,
                -2.20034,
                0.00935385
            ],
            "type": "VEC3"
        },
        "accessor_20": {
            "bufferView": "bufferView_23",
            "byteOffset": 792,
            "byteStride": 12,
            "componentType": 5126,
            "count": 66,
            "max": [
                0.920509,
                0.954456,
                1
            ],
            "min": [
                -0.913407,
                -0.920518,
                -1
            ],
            "type": "VEC3"
        }
    },
    "animations": {},
    "asset": {
        "generator": "collada2gltf@173625dc5ff1b7e8046666be1f3ca2835512ac08",
        "premultipliedAlpha": true,
        "profile": "WebGL 1.0.2",
        "version": 0.8
    },
    "bufferViews": {
        "bufferView_22": {
            "buffer": "Model",
            "byteLength": 240,
            "byteOffset": 0,
            "target": 34963
        },
        "bufferView_23": {
            "buffer": "Model",
            "byteLength": 1584,
            "byteOffset": 240,
            "target": 34962
        }
    },
    "buffers": {
        "Model": {
            "byteLength": 1824,
            "type": "arraybuffer",
            "uri": "data:application/octet-stream;base64,"
        }
    },
    "materials": {
        "ID6": {
            "instanceTechnique": {
                "technique": "technique0",
                "values": {
                    "diffuse": [
                        1,
                        1,
                        1,
                        1
                    ]
                }
            },
            "name": "__auto_13"
        }
    },
    "meshes": {
        "ID4": {
            "name": "ID4",
            "primitives": [
                {
                    "attributes": {
                        "NORMAL": "accessor_20",
                        "POSITION": "accessor_18"
                    },
                    "indices": "accessor_16",
                    "material": "ID6",
                    "primitive": 4
                }
            ]
        }
    },
    "nodes": {
        "ID2": {
            "children": [
                "ID3"
            ],
            "matrix": [
                1,
                0,
                0,
                0,
                0,
                1,
                0,
                0,
                0,
                0,
                1,
                0,
                17.1404,
                2.30885,
                0,
                1
            ],
            "name": "instance_0"
        },
        "ID3": {
            "children": [],
            "matrix": [
                1,
                0,
                0,
                0,
                0,
                1,
                0,
                0,
                0,
                0,
                1,
                0,
                0,
                0,
                0,
                1
            ],
            "meshes": [
                "ID4"
            ],
            "name": "skp699F"
        },
        "node_0": {
            "children": [
                "ID2"
            ],
            "matrix": [
                1,
                0,
                0,
                0,
                0,
                1,
                0,
                0,
                0,
                0,
                1,
                0,
                0,
                0,
                0,
                1
            ],
            "name": "SketchUp"
        },
        "node_3": {
            "children": [
                "node_0"
            ],
            "matrix": [
                1,
                0,
                0,
                0,
                0,
                0,
                -1,
                0,
                0,
                1,
                0,
                0,
                0,
                0,
                0,
                1
            ],
            "name": "Y_UP_Transform"
        }
    },
    "programs": {
        "program_0": {
            "attributes": [
                "a_normal",
                "a_position"
            ],
            "fragmentShader": "Model0FS",
            "vertexShader": "Model0VS"
        }
    },
    "scene": "defaultScene",
    "scenes": {
        "defaultScene": {
            "nodes": [
                "node_3"
            ]
        }
    },
    "shaders": {
        "Model0FS": {
            "type": 35632,
            "uri": "data:text/plain;base64,"
        },
        "Model0VS": {
            "type": 35633,
            "uri": "data:text/plain;base64,"
        }
    },
    "skins": {},
    "techniques": {
        "technique0": {
            "parameters": {
                "diffuse": {
                    "type": 35666
                },
                "modelViewMatrix": {
                    "semantic": "MODELVIEW",
                    "type": 35676
                },
                "normal": {
                    "semantic": "NORMAL",
                    "type": 35665
                },
                "normalMatrix": {
                    "semantic": "MODELVIEWINVERSETRANSPOSE",
                    "type": 35675
                },
                "position": {
                    "semantic": "POSITION",
                    "type": 35665
                },
                "projectionMatrix": {
                    "semantic": "PROJECTION",
                    "type": 35676
                }
            },
            "pass": "defaultPass",
            "passes": {
                "defaultPass": {
                    "details": {
                        "commonProfile": {
                            "extras": {
                                "doubleSided": false
                            },
                            "lightingModel": "Lambert",
                            "parameters": [
                                "diffuse",
                                "modelViewMatrix",
                                "normalMatrix",
                                "projectionMatrix"
                            ]
                        },
                        "type": "COLLADA-1.4.1/commonProfile"
                    },
                    "instanceProgram": {
                        "attributes": {
                            "a_normal": "normal",
                            "a_position": "position"
                        },
                        "program": "program_0",
                        "uniforms": {
                            "u_diffuse": "diffuse",
                            "u_modelViewMatrix": "modelViewMatrix",
                            "u_normalMatrix": "normalMatrix",
                            "u_projectionMatrix": "projectionMatrix"
                        }
                    },
                    "states": {
                        "enable": [
                            2884,
                            2929
                        ]
                    }
                }
            }
        }
    }
}