{"accessors":{"accessor_101":{"bufferView":"bufferView_416","byteOffset":9720,"byteStride":8,"componentType":5126,"count":48,"max":[6414.37,1],"min":[-6615.92,-23738.6],"type":"VEC2"},"accessor_117":{"bufferView":"bufferView_415","byteOffset":2806,"byteStride":0,"componentType":5123,"count":72,"type":"SCALAR"},"accessor_119":{"bufferView":"bufferView_416","byteOffset":22008,"byteStride":12,"componentType":5126,"count":32,"max":[-157.802,553.992,23.28],"min":[-167.19,544.576,22.31],"type":"VEC3"},"accessor_121":{"bufferView":"bufferView_416","byteOffset":22392,"byteStride":12,"componentType":5126,"count":32,"max":[0.712837,0.712838,1],"min":[-0.712837,-0.712838,-1],"type":"VEC3"},"accessor_137":{"bufferView":"bufferView_415","byteOffset":2950,"byteStride":0,"componentType":5123,"count":72,"type":"SCALAR"},"accessor_139":{"bufferView":"bufferView_416","byteOffset":22776,"byteStride":12,"componentType":5126,"count":32,"max":[-101.148,576.651,23.28],"min":[-112.312,565.511,22.31],"type":"VEC3"},"accessor_141":{"bufferView":"bufferView_416","byteOffset":23160,"byteStride":12,"componentType":5126,"count":32,"max":[0.712855,0.712832,1],"min":[-0.712839,-0.712848,-1],"type":"VEC3"},"accessor_157":{"bufferView":"bufferView_415","byteOffset":3094,"byteStride":0,"componentType":5123,"count":15,"type":"SCALAR"},"accessor_159":{"bufferView":"bufferView_416","byteOffset":23544,"byteStride":12,"componentType":5126,"count":9,"max":[-160.438,546.557,21.4262],"min":[-162.702,545.315,20.0478],"type":"VEC3"},"accessor_16":{"bufferView":"bufferView_415","byteOffset":1138,"byteStride":0,"componentType":5123,"count":834,"type":"SCALAR"},"accessor_161":{"bufferView":"bufferView_416","byteOffset":23652,"byteStride":12,"componentType":5126,"count":9,"max":[0.701387,-0.701257,2.50855e-29],"min":[-0.712908,-0.712781,-1.63224e-17],"type":"VEC3"},"accessor_177":{"bufferView":"bufferView_415","byteOffset":3124,"byteStride":0,"componentType":5123,"count":15,"type":"SCALAR"},"accessor_179":{"bufferView":"bufferView_416","byteOffset":23760,"byteStride":12,"componentType":5126,"count":9,"max":[-160.438,546.557,18.2849],"min":[-162.702,545.315,16.9048],"type":"VEC3"},"accessor_18":{"bufferView":"bufferView_416","byteOffset":10104,"byteStride":12,"componentType":5126,"count":496,"max":[-100.67,602.986,23.28],"min":[-168.044,545.315,-5.9484e-15],"type":"VEC3"},"accessor_181":{"bufferView":"bufferView_416","byteOffset":23868,"byteStride":12,"componentType":5126,"count":9,"max":[0.701387,-0.701257,1.62855e-17],"min":[-0.712908,-0.712781,0],"type":"VEC3"},"accessor_197":{"bufferView":"bufferView_415","byteOffset":3154,"byteStride":0,"componentType":5123,"count":15,"type":"SCALAR"},"accessor_199":{"bufferView":"bufferView_416","byteOffset":23976,"byteStride":12,"componentType":5126,"count":9,"max":[-160.438,546.557,15.0248],"min":[-162.702,545.315,13.6449],"type":"VEC3"},"accessor_20":{"bufferView":"bufferView_416","byteOffset":16056,"byteStride":12,"componentType":5126,"count":496,"max":[0.713197,0.712852,1],"min":[-0.712908,-0.713447,-1],"type":"VEC3"},"accessor_201":{"bufferView":"bufferView_416","byteOffset":24084,"byteStride":12,"componentType":5126,"count":9,"max":[0.701387,-0.701257,1.62855e-17],"min":[-0.712908,-0.712781,0],"type":"VEC3"},"accessor_217":{"bufferView":"bufferView_415","byteOffset":3184,"byteStride":0,"componentType":5123,"count":15,"type":"SCALAR"},"accessor_219":{"bufferView":"bufferView_416","byteOffset":24192,"byteStride":12,"componentType":5126,"count":9,"max":[-160.438,546.557,11.8349],"min":[-162.702,545.315,10.4548],"type":"VEC3"},"accessor_221":{"bufferView":"bufferView_416","byteOffset":24300,"byteStride":12,"componentType":5126,"count":9,"max":[0.701387,-0.701257,0],"min":[-0.712908,-0.712781,-1.62855e-17],"type":"VEC3"},"accessor_237":{"bufferView":"bufferView_415","byteOffset":3214,"byteStride":0,"componentType":5123,"count":15,"type":"SCALAR"},"accessor_239":{"bufferView":"bufferView_416","byteOffset":24408,"byteStride":12,"componentType":5126,"count":9,"max":[-160.438,546.557,8.57484],"min":[-162.702,545.315,7.19486],"type":"VEC3"},"accessor_241":{"bufferView":"bufferView_416","byteOffset":24516,"byteStride":12,"componentType":5126,"count":9,"max":[0.701387,-0.701257,1.62855e-17],"min":[-0.712908,-0.712781,0],"type":"VEC3"},"accessor_257":{"bufferView":"bufferView_415","byteOffset":3244,"byteStride":0,"componentType":5123,"count":15,"type":"SCALAR"},"accessor_259":{"bufferView":"bufferView_416","byteOffset":24624,"byteStride":12,"componentType":5126,"count":9,"max":[-160.438,546.557,5.35485],"min":[-162.702,545.315,3.97485],"type":"VEC3"},"accessor_261":{"bufferView":"bufferView_416","byteOffset":24732,"byteStride":12,"componentType":5126,"count":9,"max":[0.701387,-0.701257,-1.62855e-17],"min":[-0.712908,-0.712781,-2.75193e-17],"type":"VEC3"},"accessor_277":{"bufferView":"bufferView_415","byteOffset":3274,"byteStride":0,"componentType":5123,"count":15,"type":"SCALAR"},"accessor_279":{"bufferView":"bufferView_416","byteOffset":24840,"byteStride":12,"componentType":5126,"count":9,"max":[-106.205,567.746,4.57131],"min":[-108.47,566.506,3.19131],"type":"VEC3"},"accessor_281":{"bufferView":"bufferView_416","byteOffset":24948,"byteStride":12,"componentType":5126,"count":9,"max":[0.701307,-0.701346,-2.75159e-17],"min":[-0.712821,-0.712859,-4.88598e-17],"type":"VEC3"},"accessor_297":{"bufferView":"bufferView_415","byteOffset":3304,"byteStride":0,"componentType":5123,"count":15,"type":"SCALAR"},"accessor_299":{"bufferView":"bufferView_416","byteOffset":25056,"byteStride":12,"componentType":5126,"count":9,"max":[-106.205,567.746,14.2413],"min":[-108.47,566.506,12.8613],"type":"VEC3"},"accessor_301":{"bufferView":"bufferView_416","byteOffset":25164,"byteStride":12,"componentType":5126,"count":9,"max":[0.701307,-0.701346,1.62866e-17],"min":[-0.712821,-0.712859,0],"type":"VEC3"},"accessor_317":{"bufferView":"bufferView_415","byteOffset":0,"byteStride":0,"componentType":5123,"count":15,"type":"SCALAR"},"accessor_319":{"bufferView":"bufferView_416","byteOffset":0,"byteStride":12,"componentType":5126,"count":9,"max":[-106.205,567.746,11.0513],"min":[-108.47,566.506,9.6713],"type":"VEC3"},"accessor_321":{"bufferView":"bufferView_416","byteOffset":108,"byteStride":12,"componentType":5126,"count":9,"max":[0.701307,-0.701346,2.75159e-17],"min":[-0.712821,-0.712859,-1.62866e-17],"type":"VEC3"},"accessor_337":{"bufferView":"bufferView_415","byteOffset":30,"byteStride":0,"componentType":5123,"count":15,"type":"SCALAR"},"accessor_339":{"bufferView":"bufferView_416","byteOffset":216,"byteStride":12,"componentType":5126,"count":9,"max":[-106.205,567.746,20.6427],"min":[-108.47,566.506,19.2643],"type":"VEC3"},"accessor_341":{"bufferView":"bufferView_416","byteOffset":324,"byteStride":12,"componentType":5126,"count":9,"max":[0.701307,-0.701346,3.26471e-17],"min":[-0.712821,-0.712859,-1.23797e-28],"type":"VEC3"},"accessor_357":{"bufferView":"bufferView_415","byteOffset":60,"byteStride":0,"componentType":5123,"count":15,"type":"SCALAR"},"accessor_359":{"bufferView":"bufferView_416","byteOffset":432,"byteStride":12,"componentType":5126,"count":9,"max":[-106.205,567.746,7.79132],"min":[-108.47,566.506,6.41132],"type":"VEC3"},"accessor_361":{"bufferView":"bufferView_416","byteOffset":540,"byteStride":12,"componentType":5126,"count":9,"max":[0.701307,-0.701346,2.75159e-17],"min":[-0.712821,-0.712859,0],"type":"VEC3"},"accessor_377":{"bufferView":"bufferView_415","byteOffset":162,"byteStride":0,"componentType":5123,"count":15,"type":"SCALAR"},"accessor_379":{"bufferView":"bufferView_416","byteOffset":1736,"byteStride":12,"componentType":5126,"count":9,"max":[-106.205,567.746,17.5013],"min":[-108.47,566.506,16.1213],"type":"VEC3"},"accessor_381":{"bufferView":"bufferView_416","byteOffset":1844,"byteStride":12,"componentType":5126,"count":9,"max":[0.701307,-0.701346,1.23516e-28],"min":[-0.712821,-0.712859,-1.62866e-17],"type":"VEC3"},"accessor_397":{"bufferView":"bufferView_415","byteOffset":192,"byteStride":0,"componentType":5123,"count":288,"type":"SCALAR"},"accessor_399":{"bufferView":"bufferView_416","byteOffset":1952,"byteStride":12,"componentType":5126,"count":168,"max":[-100.1,604.116,28.3185],"min":[-168.605,548.422,16],"type":"VEC3"},"accessor_401":{"bufferView":"bufferView_416","byteOffset":3968,"byteStride":12,"componentType":5126,"count":168,"max":[0.712841,0.712841,1],"min":[-0.712841,-0.712841,-1],"type":"VEC3"},"accessor_41":{"bufferView":"bufferView_415","byteOffset":90,"byteStride":0,"componentType":5123,"count":36,"type":"SCALAR"},"accessor_411":{"bufferView":"bufferView_415","byteOffset":768,"byteStride":0,"componentType":5123,"count":2,"type":"SCALAR"},"accessor_413":{"bufferView":"bufferView_416","byteOffset":5984,"byteStride":12,"componentType":5126,"count":2,"max":[-189.744,577.113,0.348442],"min":[-190.463,576.511,0],"type":"VEC3"},"accessor_43":{"bufferView":"bufferView_416","byteOffset":648,"byteStride":12,"componentType":5126,"count":34,"max":[-100.67,602.828,19.08],"min":[-122.25,575.655,0],"type":"VEC3"},"accessor_45":{"bufferView":"bufferView_416","byteOffset":1056,"byteStride":12,"componentType":5126,"count":34,"max":[0.712912,0.701346,0.0000402597],"min":[0.701317,-0.71285,-0.000190982],"type":"VEC3"},"accessor_47":{"bufferView":"bufferView_416","byteOffset":1464,"byteStride":8,"componentType":5126,"count":34,"max":[99.8948,1],"min":[63.5981,-4.76837],"type":"VEC2"},"accessor_68":{"bufferView":"bufferView_415","byteOffset":772,"byteStride":0,"componentType":5123,"count":108,"type":"SCALAR"},"accessor_70":{"bufferView":"bufferView_416","byteOffset":6008,"byteStride":12,"componentType":5126,"count":80,"max":[-111.317,582.851,19.08],"min":[-158.541,548.422,0],"type":"VEC3"},"accessor_72":{"bufferView":"bufferView_416","byteOffset":6968,"byteStride":12,"componentType":5126,"count":80,"max":[0.701339,0,1],"min":[-0.712912,-0.712862,-1],"type":"VEC3"},"accessor_74":{"bufferView":"bufferView_416","byteOffset":7928,"byteStride":8,"componentType":5126,"count":80,"max":[6213.73,1],"min":[-6213.73,-22945.9],"type":"VEC2"},"accessor_95":{"bufferView":"bufferView_415","byteOffset":988,"byteStride":0,"componentType":5123,"count":75,"type":"SCALAR"},"accessor_97":{"bufferView":"bufferView_416","byteOffset":8568,"byteStride":12,"componentType":5126,"count":48,"max":[-122.404,602.986,19.08],"min":[-168.044,553.253,0],"type":"VEC3"},"accessor_99":{"bufferView":"bufferView_416","byteOffset":9144,"byteStride":12,"componentType":5126,"count":48,"max":[0,0.712848,1],"min":[-0.712846,-0.701321,-1],"type":"VEC3"}},"animations":{},"asset":{"generator":"collada2gltf@","premultipliedAlpha":true,"profile":"WebGL 1.0.2","version":0.8},"bufferViews":{"bufferView_415":{"buffer":"model","byteLength":3336,"byteOffset":0,"target":34963},"bufferView_416":{"buffer":"model","byteLength":25272,"byteOffset":3336,"target":34962}},"buffers":{"model":{"byteLength":28608,"type":"arraybuffer","uri":"data:application/octet-stream;base64,"}},"images":{"ID15":{"uri":"data:image/jpeg;base64,"}},"materials":{"ID129":{"instanceTechnique":{"technique":"technique0","values":{"diffuse":[0.568627,0.117647,0.0705882,1]}},"name":"__auto_"},"ID137":{"instanceTechnique":{"technique":"technique1","values":{}},"name":"edge_color000255"},"ID14":{"instanceTechnique":{"technique":"technique2","values":{"diffuse":"texture_ID15"}},"name":"__auto_2"},"ID55":{"instanceTechnique":{"technique":"technique3","values":{"diffuse":[0.501961,0.501961,0.501961,0.501961],"transparency":0.501961}},"name":"__auto_3"},"ID6":{"instanceTechnique":{"technique":"technique0","values":{"diffuse":[1,1,1,1]}},"name":"__auto_1"}},"meshes":{"ID103":{"name":"ID103","primitives":[{"attributes":{"NORMAL":"accessor_321","POSITION":"accessor_319"},"indices":"accessor_317","material":"ID55","primitive":4}]},"ID109":{"name":"ID109","primitives":[{"attributes":{"NORMAL":"accessor_341","POSITION":"accessor_339"},"indices":"accessor_337","material":"ID55","primitive":4}]},"ID115":{"name":"ID115","primitives":[{"attributes":{"NORMAL":"accessor_361","POSITION":"accessor_359"},"indices":"accessor_357","material":"ID55","primitive":4}]},"ID12":{"name":"ID12","primitives":[{"attributes":{"NORMAL":"accessor_45","POSITION":"accessor_43","TEXCOORD_0":"accessor_47"},"indices":"accessor_41","material":"ID14","primitive":4}]},"ID121":{"name":"ID121","primitives":[{"attributes":{"NORMAL":"accessor_381","POSITION":"accessor_379"},"indices":"accessor_377","material":"ID55","primitive":4}]},"ID127":{"name":"ID127","primitives":[{"attributes":{"NORMAL":"accessor_401","POSITION":"accessor_399"},"indices":"accessor_397","material":"ID129","primitive":4}]},"ID135":{"name":"ID135","primitives":[{"attributes":{"POSITION":"accessor_413"},"indices":"accessor_411","material":"ID137","primitive":1}]},"ID25":{"name":"ID25","primitives":[{"attributes":{"NORMAL":"accessor_72","POSITION":"accessor_70","TEXCOORD_0":"accessor_74"},"indices":"accessor_68","material":"ID14","primitive":4}]},"ID33":{"name":"ID33","primitives":[{"attributes":{"NORMAL":"accessor_99","POSITION":"accessor_97","TEXCOORD_0":"accessor_101"},"indices":"accessor_95","material":"ID14","primitive":4}]},"ID4":{"name":"ID4","primitives":[{"attributes":{"NORMAL":"accessor_20","POSITION":"accessor_18"},"indices":"accessor_16","material":"ID6","primitive":4}]},"ID41":{"name":"ID41","primitives":[{"attributes":{"NORMAL":"accessor_121","POSITION":"accessor_119"},"indices":"accessor_117","material":"ID6","primitive":4}]},"ID47":{"name":"ID47","primitives":[{"attributes":{"NORMAL":"accessor_141","POSITION":"accessor_139"},"indices":"accessor_137","material":"ID6","primitive":4}]},"ID53":{"name":"ID53","primitives":[{"attributes":{"NORMAL":"accessor_161","POSITION":"accessor_159"},"indices":"accessor_157","material":"ID55","primitive":4}]},"ID61":{"name":"ID61","primitives":[{"attributes":{"NORMAL":"accessor_181","POSITION":"accessor_179"},"indices":"accessor_177","material":"ID55","primitive":4}]},"ID67":{"name":"ID67","primitives":[{"attributes":{"NORMAL":"accessor_201","POSITION":"accessor_199"},"indices":"accessor_197","material":"ID55","primitive":4}]},"ID73":{"name":"ID73","primitives":[{"attributes":{"NORMAL":"accessor_221","POSITION":"accessor_219"},"indices":"accessor_217","material":"ID55","primitive":4}]},"ID79":{"name":"ID79","primitives":[{"attributes":{"NORMAL":"accessor_241","POSITION":"accessor_239"},"indices":"accessor_237","material":"ID55","primitive":4}]},"ID85":{"name":"ID85","primitives":[{"attributes":{"NORMAL":"accessor_261","POSITION":"accessor_259"},"indices":"accessor_257","material":"ID55","primitive":4}]},"ID91":{"name":"ID91","primitives":[{"attributes":{"NORMAL":"accessor_281","POSITION":"accessor_279"},"indices":"accessor_277","material":"ID55","primitive":4}]},"ID97":{"name":"ID97","primitives":[{"attributes":{"NORMAL":"accessor_301","POSITION":"accessor_299"},"indices":"accessor_297","material":"ID55","primitive":4}]}},"nodes":{"ID2":{"children":["ID3"],"matrix":[1,0,0,0,0,1,0,0,0,0,1,0,107.467,-566.506,-1.06837e-19,1],"name":"instance_0"},"ID3":{"children":[],"matrix":[1,0,0,0,0,1,0,0,0,0,1,0,0,0,0,1],"meshes":["ID4","ID12","ID79","ID85","ID91","ID97","ID103","ID109","ID115","ID121","ID127","ID135","ID25","ID33","ID41","ID47","ID53","ID61","ID67","ID73"],"name":"skp6EDC"},"node_0":{"children":["ID2"],"matrix":[1,0,0,0,0,1,0,0,0,0,1,0,0,0,0,1],"name":"SketchUp"},"node_3":{"children":["node_0"],"matrix":[1,0,0,0,0,0,-1,0,0,1,0,0,0,0,0,1],"name":"Y_UP_Transform"}},"programs":{"program_0":{"attributes":["a_normal","a_position"],"fragmentShader":"model0FS","vertexShader":"model0VS"},"program_1":{"attributes":["a_position"],"fragmentShader":"model1FS","vertexShader":"model1VS"},"program_2":{"attributes":["a_normal","a_position","a_texcoord0"],"fragmentShader":"model2FS","vertexShader":"model2VS"},"program_3":{"attributes":["a_normal","a_position"],"fragmentShader":"model3FS","vertexShader":"model3VS"}},"samplers":{"sampler_0":{"magFilter":9729,"minFilter":9729,"wrapS":10497,"wrapT":10497}},"scene":"defaultScene","scenes":{"defaultScene":{"nodes":["node_3"]}},"shaders":{"model0FS":{"type":35632,"uri":"data:text/plain;base64,"},"model0VS":{"type":35633,"uri":"data:text/plain;base64,"},"model1FS":{"type":35632,"uri":"data:text/plain;base64,"},"model1VS":{"type":35633,"uri":"data:text/plain;base64,"},"model2FS":{"type":35632,"uri":"data:text/plain;base64,"},"model2VS":{"type":35633,"uri":"data:text/plain;base64,"},"model3FS":{"type":35632,"uri":"data:text/plain;base64,"},"model3VS":{"type":35633,"uri":"data:text/plain;base64,"}},"skins":{},"techniques":{"technique0":{"parameters":{"diffuse":{"type":35666},"modelViewMatrix":{"semantic":"MODELVIEW","type":35676},"normal":{"semantic":"NORMAL","type":35665},"normalMatrix":{"semantic":"MODELVIEWINVERSETRANSPOSE","type":35675},"position":{"semantic":"POSITION","type":35665},"projectionMatrix":{"semantic":"PROJECTION","type":35676}},"pass":"defaultPass","passes":{"defaultPass":{"details":{"commonProfile":{"extras":{"doubleSided":false},"lightingModel":"Lambert","parameters":["diffuse","modelViewMatrix","normalMatrix","projectionMatrix"]},"type":"COLLADA-1.4.1/commonProfile"},"instanceProgram":{"attributes":{"a_normal":"normal","a_position":"position"},"program":"program_0","uniforms":{"u_diffuse":"diffuse","u_modelViewMatrix":"modelViewMatrix","u_normalMatrix":"normalMatrix","u_projectionMatrix":"projectionMatrix"}},"states":{"enable":[2884,2929]}}}},"technique1":{"parameters":{"modelViewMatrix":{"semantic":"MODELVIEW","type":35676},"position":{"semantic":"POSITION","type":35665},"projectionMatrix":{"semantic":"PROJECTION","type":35676}},"pass":"defaultPass","passes":{"defaultPass":{"details":{"commonProfile":{"extras":{"doubleSided":false},"lightingModel":"Constant","parameters":["modelViewMatrix","projectionMatrix"]},"type":"COLLADA-1.4.1/commonProfile"},"instanceProgram":{"attributes":{"a_position":"position"},"program":"program_1","uniforms":{"u_modelViewMatrix":"modelViewMatrix","u_projectionMatrix":"projectionMatrix"}},"states":{"enable":[2884,2929]}}}},"technique2":{"parameters":{"diffuse":{"type":35678},"modelViewMatrix":{"semantic":"MODELVIEW","type":35676},"normal":{"semantic":"NORMAL","type":35665},"normalMatrix":{"semantic":"MODELVIEWINVERSETRANSPOSE","type":35675},"position":{"semantic":"POSITION","type":35665},"projectionMatrix":{"semantic":"PROJECTION","type":35676},"texcoord0":{"semantic":"TEXCOORD_0","type":35664}},"pass":"defaultPass","passes":{"defaultPass":{"details":{"commonProfile":{"extras":{"doubleSided":false},"lightingModel":"Lambert","parameters":["diffuse","modelViewMatrix","normalMatrix","projectionMatrix"],"texcoordBindings":{"diffuse":"TEXCOORD_0"}},"type":"COLLADA-1.4.1/commonProfile"},"instanceProgram":{"attributes":{"a_normal":"normal","a_position":"position","a_texcoord0":"texcoord0"},"program":"program_2","uniforms":{"u_diffuse":"diffuse","u_modelViewMatrix":"modelViewMatrix","u_normalMatrix":"normalMatrix","u_projectionMatrix":"projectionMatrix"}},"states":{"enable":[2884,2929]}}}},"technique3":{"parameters":{"diffuse":{"type":35666},"modelViewMatrix":{"semantic":"MODELVIEW","type":35676},"normal":{"semantic":"NORMAL","type":35665},"normalMatrix":{"semantic":"MODELVIEWINVERSETRANSPOSE","type":35675},"position":{"semantic":"POSITION","type":35665},"projectionMatrix":{"semantic":"PROJECTION","type":35676},"transparency":{"type":5126}},"pass":"defaultPass","passes":{"defaultPass":{"details":{"commonProfile":{"extras":{"doubleSided":false},"lightingModel":"Lambert","parameters":["diffuse","modelViewMatrix","normalMatrix","projectionMatrix","transparency"]},"type":"COLLADA-1.4.1/commonProfile"},"instanceProgram":{"attributes":{"a_normal":"normal","a_position":"position"},"program":"program_3","uniforms":{"u_diffuse":"diffuse","u_modelViewMatrix":"modelViewMatrix","u_normalMatrix":"normalMatrix","u_projectionMatrix":"projectionMatrix","u_transparency":"transparency"}},"states":{"enable":[2884,2929,3042],"functions":{"blendEquationSeparate":[32774,32774],"blendFuncSeparate":[1,771,1,771]}}}}}},"textures":{"texture_ID15":{"format":6408,"internalFormat":6408,"sampler":"sampler_0","source":"ID15","target":3553,"type":5121}}}