{"accessors":{"accessor_101":{"bufferView":"bufferView_525","byteOffset":8592,"byteStride":8,"componentType":5126,"count":8,"max":[71.8296,0.978674],"min":[0.00770677,-5.81653],"type":"VEC2"},"accessor_117":{"bufferView":"bufferView_524","byteOffset":1056,"byteStride":0,"componentType":5123,"count":1128,"type":"SCALAR"},"accessor_119":{"bufferView":"bufferView_525","byteOffset":9040,"byteStride":12,"componentType":5126,"count":553,"max":[-340.741,431.455,16.75],"min":[-390.964,375.763,0],"type":"VEC3"},"accessor_121":{"bufferView":"bufferView_525","byteOffset":15676,"byteStride":12,"componentType":5126,"count":553,"max":[1,1,1],"min":[-1,-1,-1],"type":"VEC3"},"accessor_137":{"bufferView":"bufferView_524","byteOffset":3312,"byteStride":0,"componentType":5123,"count":36,"type":"SCALAR"},"accessor_139":{"bufferView":"bufferView_525","byteOffset":22312,"byteStride":12,"componentType":5126,"count":22,"max":[-352.369,426.684,13.394],"min":[-360.177,423.009,10.304],"type":"VEC3"},"accessor_141":{"bufferView":"bufferView_525","byteOffset":22576,"byteStride":12,"componentType":5126,"count":22,"max":[1,1,1],"min":[-1,0,-1],"type":"VEC3"},"accessor_157":{"bufferView":"bufferView_524","byteOffset":3384,"byteStride":0,"componentType":5123,"count":33,"type":"SCALAR"},"accessor_159":{"bufferView":"bufferView_525","byteOffset":22840,"byteStride":12,"componentType":5126,"count":21,"max":[-352.494,426.684,8.55353],"min":[-360.131,423.009,5.71353],"type":"VEC3"},"accessor_161":{"bufferView":"bufferView_525","byteOffset":23092,"byteStride":12,"componentType":5126,"count":21,"max":[1,1,1],"min":[-1,0,-1],"type":"VEC3"},"accessor_182":{"bufferView":"bufferView_524","byteOffset":3450,"byteStride":0,"componentType":5123,"count":6,"type":"SCALAR"},"accessor_184":{"bufferView":"bufferView_525","byteOffset":23344,"byteStride":12,"componentType":5126,"count":4,"max":[-346.926,426.232,10.3133],"min":[-350.957,423.464,8.71334],"type":"VEC3"},"accessor_186":{"bufferView":"bufferView_525","byteOffset":23392,"byteStride":12,"componentType":5126,"count":4,"max":[0.566273,0.824218,8.87962e-17],"min":[0.566273,0.824218,8.87962e-17],"type":"VEC3"},"accessor_188":{"bufferView":"bufferView_525","byteOffset":23440,"byteStride":8,"componentType":5126,"count":4,"max":[105.997,-4.76425],"min":[105.02,-5.82272],"type":"VEC2"},"accessor_204":{"bufferView":"bufferView_524","byteOffset":3462,"byteStride":0,"componentType":5123,"count":261,"type":"SCALAR"},"accessor_206":{"bufferView":"bufferView_525","byteOffset":23472,"byteStride":12,"componentType":5126,"count":195,"max":[-334.556,423.009,4.75666],"min":[-346.266,382.359,-8.78015e-15],"type":"VEC3"},"accessor_208":{"bufferView":"bufferView_525","byteOffset":25812,"byteStride":12,"componentType":5126,"count":195,"max":[0.992483,1,1],"min":[-0.99248,-0.992467,-1],"type":"VEC3"},"accessor_21":{"bufferView":"bufferView_524","byteOffset":1020,"byteStride":0,"componentType":5123,"count":18,"type":"SCALAR"},"accessor_224":{"bufferView":"bufferView_524","byteOffset":3984,"byteStride":0,"componentType":5123,"count":3,"type":"SCALAR"},"accessor_226":{"bufferView":"bufferView_525","byteOffset":28152,"byteStride":12,"componentType":5126,"count":3,"max":[-334.556,383.619,0],"min":[-335.156,383.111,0],"type":"VEC3"},"accessor_228":{"bufferView":"bufferView_525","byteOffset":28188,"byteStride":12,"componentType":5126,"count":3,"max":[0,0,-1],"min":[0,0,-1],"type":"VEC3"},"accessor_23":{"bufferView":"bufferView_525","byteOffset":8656,"byteStride":12,"componentType":5126,"count":12,"max":[-385.595,402.046,14.27],"min":[-390.512,376.273,0],"type":"VEC3"},"accessor_244":{"bufferView":"bufferView_524","byteOffset":3990,"byteStride":0,"componentType":5123,"count":6,"type":"SCALAR"},"accessor_246":{"bufferView":"bufferView_525","byteOffset":28224,"byteStride":12,"componentType":5126,"count":4,"max":[-335.509,391.879,0],"min":[-336.812,390.741,-9.9363e-19],"type":"VEC3"},"accessor_248":{"bufferView":"bufferView_525","byteOffset":28272,"byteStride":12,"componentType":5126,"count":4,"max":[8.28646e-19,1.02216e-19,-1],"min":[8.28646e-19,1.02216e-19,-1],"type":"VEC3"},"accessor_25":{"bufferView":"bufferView_525","byteOffset":8800,"byteStride":12,"componentType":5126,"count":12,"max":[-0.819221,0.573478,0],"min":[-1,0,0],"type":"VEC3"},"accessor_264":{"bufferView":"bufferView_524","byteOffset":4002,"byteStride":0,"componentType":5123,"count":6,"type":"SCALAR"},"accessor_266":{"bufferView":"bufferView_525","byteOffset":28320,"byteStride":12,"componentType":5126,"count":4,"max":[-335.509,391.879,4.23629],"min":[-336.812,390.741,4.23629],"type":"VEC3"},"accessor_268":{"bufferView":"bufferView_525","byteOffset":28368,"byteStride":12,"componentType":5126,"count":4,"max":[0,0,1],"min":[0,0,1],"type":"VEC3"},"accessor_27":{"bufferView":"bufferView_525","byteOffset":8944,"byteStride":8,"componentType":5126,"count":12,"max":[-10.9991,1],"min":[-48.0917,-1.80685],"type":"VEC2"},"accessor_284":{"bufferView":"bufferView_524","byteOffset":0,"byteStride":0,"componentType":5123,"count":6,"type":"SCALAR"},"accessor_286":{"bufferView":"bufferView_525","byteOffset":0,"byteStride":12,"componentType":5126,"count":4,"max":[-336.466,399.644,-7.21911e-16],"min":[-337.769,398.506,-4.75153e-15],"type":"VEC3"},"accessor_288":{"bufferView":"bufferView_525","byteOffset":48,"byteStride":12,"componentType":5126,"count":4,"max":[3.36083e-15,4.14997e-16,-1],"min":[3.36083e-15,4.14997e-16,-1],"type":"VEC3"},"accessor_304":{"bufferView":"bufferView_524","byteOffset":12,"byteStride":0,"componentType":5123,"count":9,"type":"SCALAR"},"accessor_306":{"bufferView":"bufferView_525","byteOffset":96,"byteStride":12,"componentType":5126,"count":5,"max":[-336.466,399.644,4.23629],"min":[-337.769,398.506,4.23629],"type":"VEC3"},"accessor_308":{"bufferView":"bufferView_525","byteOffset":156,"byteStride":12,"componentType":5126,"count":5,"max":[0,0,1],"min":[0,0,1],"type":"VEC3"},"accessor_324":{"bufferView":"bufferView_524","byteOffset":30,"byteStride":0,"componentType":5123,"count":6,"type":"SCALAR"},"accessor_326":{"bufferView":"bufferView_525","byteOffset":216,"byteStride":12,"componentType":5126,"count":4,"max":[-337.426,407.408,-7.21911e-16],"min":[-338.729,406.27,-8.78015e-15],"type":"VEC3"},"accessor_328":{"bufferView":"bufferView_525","byteOffset":264,"byteStride":12,"componentType":5126,"count":4,"max":[6.72084e-15,8.29892e-16,-1],"min":[6.72084e-15,8.29892e-16,-1],"type":"VEC3"},"accessor_344":{"bufferView":"bufferView_524","byteOffset":42,"byteStride":0,"componentType":5123,"count":9,"type":"SCALAR"},"accessor_346":{"bufferView":"bufferView_525","byteOffset":312,"byteStride":12,"componentType":5126,"count":5,"max":[-337.426,407.408,4.23629],"min":[-338.729,406.27,4.23629],"type":"VEC3"},"accessor_348":{"bufferView":"bufferView_525","byteOffset":372,"byteStride":12,"componentType":5126,"count":5,"max":[0,0,1],"min":[0,0,1],"type":"VEC3"},"accessor_364":{"bufferView":"bufferView_524","byteOffset":60,"byteStride":0,"componentType":5123,"count":12,"type":"SCALAR"},"accessor_366":{"bufferView":"bufferView_525","byteOffset":432,"byteStride":12,"componentType":5126,"count":6,"max":[-338.384,415.173,4.23629],"min":[-339.687,414.035,4.23629],"type":"VEC3"},"accessor_368":{"bufferView":"bufferView_525","byteOffset":504,"byteStride":12,"componentType":5126,"count":6,"max":[0,0,1],"min":[0,0,1],"type":"VEC3"},"accessor_389":{"bufferView":"bufferView_524","byteOffset":84,"byteStride":0,"componentType":5123,"count":60,"type":"SCALAR"},"accessor_391":{"bufferView":"bufferView_525","byteOffset":576,"byteStride":12,"componentType":5126,"count":54,"max":[-366.471,426.684,14.27],"min":[-385.595,402.046,0],"type":"VEC3"},"accessor_393":{"bufferView":"bufferView_525","byteOffset":1224,"byteStride":12,"componentType":5126,"count":54,"max":[-0.789919,0.613212,0.000049786],"min":[-0.789972,0.613143,-0.000325074],"type":"VEC3"},"accessor_395":{"bufferView":"bufferView_525","byteOffset":1872,"byteStride":8,"componentType":5126,"count":54,"max":[-8.09206,1],"min":[-11.2017,-1.92539],"type":"VEC2"},"accessor_416":{"bufferView":"bufferView_524","byteOffset":204,"byteStride":0,"componentType":5123,"count":21,"type":"SCALAR"},"accessor_418":{"bufferView":"bufferView_525","byteOffset":2304,"byteStride":12,"componentType":5126,"count":21,"max":[-368.262,426.684,5.38],"min":[-380.34,413.418,0],"type":"VEC3"},"accessor_420":{"bufferView":"bufferView_525","byteOffset":2556,"byteStride":12,"componentType":5126,"count":21,"max":[0.29998,0.600299,0.999938],"min":[-0.0427934,-0.00882694,0.79863],"type":"VEC3"},"accessor_422":{"bufferView":"bufferView_525","byteOffset":2808,"byteStride":8,"componentType":5126,"count":21,"max":[13638.5,13859],"min":[-575.679,-104.91],"type":"VEC2"},"accessor_438":{"bufferView":"bufferView_524","byteOffset":246,"byteStride":0,"componentType":5123,"count":30,"type":"SCALAR"},"accessor_440":{"bufferView":"bufferView_525","byteOffset":2976,"byteStride":12,"componentType":5126,"count":20,"max":[-362.293,431.455,6.89981],"min":[-365.054,414.655,6.22981],"type":"VEC3"},"accessor_442":{"bufferView":"bufferView_525","byteOffset":3216,"byteStride":12,"componentType":5126,"count":20,"max":[1,1,1],"min":[-1,0,-1],"type":"VEC3"},"accessor_458":{"bufferView":"bufferView_524","byteOffset":306,"byteStride":0,"componentType":5123,"count":24,"type":"SCALAR"},"accessor_460":{"bufferView":"bufferView_525","byteOffset":3456,"byteStride":12,"componentType":5126,"count":16,"max":[-362.293,431.455,8.44982],"min":[-365.054,426.684,7.77982],"type":"VEC3"},"accessor_462":{"bufferView":"bufferView_525","byteOffset":3648,"byteStride":12,"componentType":5126,"count":16,"max":[1,0,1],"min":[-1,0,-1],"type":"VEC3"},"accessor_478":{"bufferView":"bufferView_524","byteOffset":354,"byteStride":0,"componentType":5123,"count":30,"type":"SCALAR"},"accessor_48":{"bufferView":"bufferView_524","byteOffset":414,"byteStride":0,"componentType":5123,"count":15,"type":"SCALAR"},"accessor_480":{"bufferView":"bufferView_525","byteOffset":3840,"byteStride":12,"componentType":5126,"count":20,"max":[-362.293,431.455,10.1798],"min":[-365.054,423.009,9.50981],"type":"VEC3"},"accessor_482":{"bufferView":"bufferView_525","byteOffset":4080,"byteStride":12,"componentType":5126,"count":20,"max":[1,1,1],"min":[-1,0,-1],"type":"VEC3"},"accessor_498":{"bufferView":"bufferView_524","byteOffset":444,"byteStride":0,"componentType":5123,"count":210,"type":"SCALAR"},"accessor_50":{"bufferView":"bufferView_525","byteOffset":4320,"byteStride":12,"componentType":5126,"count":9,"max":[-341.246,423.009,14.27],"min":[-390.512,376.273,0],"type":"VEC3"},"accessor_500":{"bufferView":"bufferView_525","byteOffset":4608,"byteStride":12,"componentType":5126,"count":120,"max":[-362.067,431.455,15.2356],"min":[-365.343,428.475,11.9594],"type":"VEC3"},"accessor_502":{"bufferView":"bufferView_525","byteOffset":6048,"byteStride":12,"componentType":5126,"count":120,"max":[0.996594,1,0.996578],"min":[-0.996594,-6.01174e-7,-0.996578],"type":"VEC3"},"accessor_518":{"bufferView":"bufferView_524","byteOffset":864,"byteStride":0,"componentType":5123,"count":66,"type":"SCALAR"},"accessor_52":{"bufferView":"bufferView_525","byteOffset":4428,"byteStride":12,"componentType":5126,"count":9,"max":[0.992458,0.122585,0],"min":[0.122579,-0.992459,-5.21732e-18],"type":"VEC3"},"accessor_520":{"bufferView":"bufferView_525","byteOffset":7488,"byteStride":12,"componentType":5126,"count":38,"max":[-360.54,431.856,18.5579],"min":[-366.87,426.286,16.75],"type":"VEC3"},"accessor_522":{"bufferView":"bufferView_525","byteOffset":7944,"byteStride":12,"componentType":5126,"count":38,"max":[1,1,0.866026],"min":[-1,-1,-1],"type":"VEC3"},"accessor_54":{"bufferView":"bufferView_525","byteOffset":4536,"byteStride":8,"componentType":5126,"count":9,"max":[46.0883,1],"min":[-34.0421,-1.92539],"type":"VEC2"},"accessor_92":{"bufferView":"bufferView_524","byteOffset":996,"byteStride":0,"componentType":5123,"count":6,"type":"SCALAR"},"accessor_95":{"bufferView":"bufferView_524","byteOffset":1008,"byteStride":0,"componentType":5123,"count":6,"type":"SCALAR"},"accessor_97":{"bufferView":"bufferView_525","byteOffset":8400,"byteStride":12,"componentType":5126,"count":8,"max":[-352.494,426.684,10.304],"min":[-359.58,426.684,8.55353],"type":"VEC3"},"accessor_99":{"bufferView":"bufferView_525","byteOffset":8496,"byteStride":12,"componentType":5126,"count":8,"max":[0,1,0],"min":[0,-1,0],"type":"VEC3"}},"animations":{},"asset":{"generator":"collada2gltf@","premultipliedAlpha":true,"profile":"WebGL 1.0.2","version":0.8},"bufferViews":{"bufferView_524":{"buffer":"model","byteLength":4016,"byteOffset":0,"target":34963},"bufferView_525":{"buffer":"model","byteLength":28416,"byteOffset":4016,"target":34962}},"buffers":{"model":{"byteLength":32432,"type":"arraybuffer","uri":"data:application/octet-stream;base64,"}},"images":{"ID143":{"uri":"data:image/jpeg;base64,"},"ID20":{"uri":"data:image/png;base64,"},"ID33":{"uri":"data:image/jpeg;base64,"},"ID42":{"uri":"data:image/png;base64,"},"ID7":{"uri":"data:image/png;base64,"}},"materials":{"ID142":{"instanceTechnique":{"technique":"technique0","values":{"diffuse":"texture_ID143"}},"name":"__auto_6"},"ID19":{"instanceTechnique":{"technique":"technique0","values":{"diffuse":"texture_ID20"}},"name":"__auto_2"},"ID32":{"instanceTechnique":{"technique":"technique0","values":{"diffuse":"texture_ID33"}},"name":"__auto_3"},"ID41":{"instanceTechnique":{"technique":"technique0","values":{"diffuse":"texture_ID42"}},"name":"__auto_4"},"ID50":{"instanceTechnique":{"technique":"technique1","values":{"diffuse":[1,1,1,1]}},"name":"__auto_"},"ID6":{"instanceTechnique":{"technique":"technique0","values":{"diffuse":"texture_ID7"}},"name":"__auto_1"},"ID78":{"instanceTechnique":{"technique":"technique1","values":{"diffuse":[0.305882,0.117647,0.117647,1]}},"name":"__auto_5"}},"meshes":{"ID102":{"name":"ID102","primitives":[{"attributes":{"NORMAL":"accessor_288","POSITION":"accessor_286"},"indices":"accessor_284","material":"ID50","primitive":4}]},"ID108":{"name":"ID108","primitives":[{"attributes":{"NORMAL":"accessor_308","POSITION":"accessor_306"},"indices":"accessor_304","material":"ID50","primitive":4}]},"ID114":{"name":"ID114","primitives":[{"attributes":{"NORMAL":"accessor_328","POSITION":"accessor_326"},"indices":"accessor_324","material":"ID50","primitive":4}]},"ID120":{"name":"ID120","primitives":[{"attributes":{"NORMAL":"accessor_348","POSITION":"accessor_346"},"indices":"accessor_344","material":"ID50","primitive":4}]},"ID126":{"name":"ID126","primitives":[{"attributes":{"NORMAL":"accessor_368","POSITION":"accessor_366"},"indices":"accessor_364","material":"ID50","primitive":4}]},"ID132":{"name":"ID132","primitives":[{"attributes":{"NORMAL":"accessor_393","POSITION":"accessor_391","TEXCOORD_0":"accessor_395"},"indices":"accessor_389","material":"ID19","primitive":4}]},"ID140":{"name":"ID140","primitives":[{"attributes":{"NORMAL":"accessor_420","POSITION":"accessor_418","TEXCOORD_0":"accessor_422"},"indices":"accessor_416","material":"ID142","primitive":4}]},"ID153":{"name":"ID153","primitives":[{"attributes":{"NORMAL":"accessor_442","POSITION":"accessor_440"},"indices":"accessor_438","material":"ID50","primitive":4}]},"ID159":{"name":"ID159","primitives":[{"attributes":{"NORMAL":"accessor_462","POSITION":"accessor_460"},"indices":"accessor_458","material":"ID50","primitive":4}]},"ID165":{"name":"ID165","primitives":[{"attributes":{"NORMAL":"accessor_482","POSITION":"accessor_480"},"indices":"accessor_478","material":"ID50","primitive":4}]},"ID17":{"name":"ID17","primitives":[{"attributes":{"NORMAL":"accessor_52","POSITION":"accessor_50","TEXCOORD_0":"accessor_54"},"indices":"accessor_48","material":"ID19","primitive":4}]},"ID171":{"name":"ID171","primitives":[{"attributes":{"NORMAL":"accessor_502","POSITION":"accessor_500"},"indices":"accessor_498","material":"ID50","primitive":4}]},"ID177":{"name":"ID177","primitives":[{"attributes":{"NORMAL":"accessor_522","POSITION":"accessor_520"},"indices":"accessor_518","material":"ID50","primitive":4}]},"ID30":{"name":"ID30","primitives":[{"attributes":{"NORMAL":"accessor_99","POSITION":"accessor_97","TEXCOORD_0":"accessor_101"},"indices":"accessor_92","material":"ID32","primitive":4},{"attributes":{"NORMAL":"accessor_99","POSITION":"accessor_97","TEXCOORD_0":"accessor_101"},"indices":"accessor_95","material":"ID41","primitive":4}]},"ID4":{"name":"ID4","primitives":[{"attributes":{"NORMAL":"accessor_25","POSITION":"accessor_23","TEXCOORD_0":"accessor_27"},"indices":"accessor_21","material":"ID6","primitive":4}]},"ID48":{"name":"ID48","primitives":[{"attributes":{"NORMAL":"accessor_121","POSITION":"accessor_119"},"indices":"accessor_117","material":"ID50","primitive":4}]},"ID56":{"name":"ID56","primitives":[{"attributes":{"NORMAL":"accessor_141","POSITION":"accessor_139"},"indices":"accessor_137","material":"ID50","primitive":4}]},"ID62":{"name":"ID62","primitives":[{"attributes":{"NORMAL":"accessor_161","POSITION":"accessor_159"},"indices":"accessor_157","material":"ID50","primitive":4}]},"ID68":{"name":"ID68","primitives":[{"attributes":{"NORMAL":"accessor_186","POSITION":"accessor_184","TEXCOORD_0":"accessor_188"},"indices":"accessor_182","material":"ID41","primitive":4}]},"ID76":{"name":"ID76","primitives":[{"attributes":{"NORMAL":"accessor_208","POSITION":"accessor_206"},"indices":"accessor_204","material":"ID78","primitive":4}]},"ID84":{"name":"ID84","primitives":[{"attributes":{"NORMAL":"accessor_228","POSITION":"accessor_226"},"indices":"accessor_224","material":"ID50","primitive":4}]},"ID90":{"name":"ID90","primitives":[{"attributes":{"NORMAL":"accessor_248","POSITION":"accessor_246"},"indices":"accessor_244","material":"ID50","primitive":4}]},"ID96":{"name":"ID96","primitives":[{"attributes":{"NORMAL":"accessor_268","POSITION":"accessor_266"},"indices":"accessor_264","material":"ID50","primitive":4}]}},"nodes":{"ID2":{"children":["ID3"],"matrix":[1,0,0,0,0,1,0,0,0,0,1,0,341.246,-382.359,0,1],"name":"instance_0"},"ID3":{"children":[],"matrix":[1,0,0,0,0,1,0,0,0,0,1,0,0,0,0,1],"meshes":["ID4","ID17","ID96","ID102","ID108","ID114","ID120","ID126","ID132","ID140","ID153","ID159","ID30","ID165","ID171","ID177","ID48","ID56","ID62","ID68","ID76","ID84","ID90"],"name":"skp9E98"},"node_0":{"children":["ID2"],"matrix":[1,0,0,0,0,1,0,0,0,0,1,0,0,0,0,1],"name":"SketchUp"},"node_3":{"children":["node_0"],"matrix":[1,0,0,0,0,0,-1,0,0,1,0,0,0,0,0,1],"name":"Y_UP_Transform"}},"programs":{"program_0":{"attributes":["a_normal","a_position","a_texcoord0"],"fragmentShader":"model0FS","vertexShader":"model0VS"},"program_1":{"attributes":["a_normal","a_position"],"fragmentShader":"model1FS","vertexShader":"model1VS"}},"samplers":{"sampler_0":{"magFilter":9729,"minFilter":9729,"wrapS":10497,"wrapT":10497}},"scene":"defaultScene","scenes":{"defaultScene":{"nodes":["node_3"]}},"shaders":{"model0FS":{"type":35632,"uri":"data:text/plain;base64,"},"model0VS":{"type":35633,"uri":"data:text/plain;base64,"},"model1FS":{"type":35632,"uri":"data:text/plain;base64,"},"model1VS":{"type":35633,"uri":"data:text/plain;base64,"}},"skins":{},"techniques":{"technique0":{"parameters":{"diffuse":{"type":35678},"modelViewMatrix":{"semantic":"MODELVIEW","type":35676},"normal":{"semantic":"NORMAL","type":35665},"normalMatrix":{"semantic":"MODELVIEWINVERSETRANSPOSE","type":35675},"position":{"semantic":"POSITION","type":35665},"projectionMatrix":{"semantic":"PROJECTION","type":35676},"texcoord0":{"semantic":"TEXCOORD_0","type":35664}},"pass":"defaultPass","passes":{"defaultPass":{"details":{"commonProfile":{"extras":{"doubleSided":false},"lightingModel":"Lambert","parameters":["diffuse","modelViewMatrix","normalMatrix","projectionMatrix"],"texcoordBindings":{"diffuse":"TEXCOORD_0"}},"type":"COLLADA-1.4.1/commonProfile"},"instanceProgram":{"attributes":{"a_normal":"normal","a_position":"position","a_texcoord0":"texcoord0"},"program":"program_0","uniforms":{"u_diffuse":"diffuse","u_modelViewMatrix":"modelViewMatrix","u_normalMatrix":"normalMatrix","u_projectionMatrix":"projectionMatrix"}},"states":{"enable":[2884,2929]}}}},"technique1":{"parameters":{"diffuse":{"type":35666},"modelViewMatrix":{"semantic":"MODELVIEW","type":35676},"normal":{"semantic":"NORMAL","type":35665},"normalMatrix":{"semantic":"MODELVIEWINVERSETRANSPOSE","type":35675},"position":{"semantic":"POSITION","type":35665},"projectionMatrix":{"semantic":"PROJECTION","type":35676}},"pass":"defaultPass","passes":{"defaultPass":{"details":{"commonProfile":{"extras":{"doubleSided":false},"lightingModel":"Lambert","parameters":["diffuse","modelViewMatrix","normalMatrix","projectionMatrix"]},"type":"COLLADA-1.4.1/commonProfile"},"instanceProgram":{"attributes":{"a_normal":"normal","a_position":"position"},"program":"program_1","uniforms":{"u_diffuse":"diffuse","u_modelViewMatrix":"modelViewMatrix","u_normalMatrix":"normalMatrix","u_projectionMatrix":"projectionMatrix"}},"states":{"enable":[2884,2929]}}}}},"textures":{"texture_ID143":{"format":6408,"internalFormat":6408,"sampler":"sampler_0","source":"ID143","target":3553,"type":5121},"texture_ID20":{"format":6408,"internalFormat":6408,"sampler":"sampler_0","source":"ID20","target":3553,"type":5121},"texture_ID33":{"format":6408,"internalFormat":6408,"sampler":"sampler_0","source":"ID33","target":3553,"type":5121},"texture_ID42":{"format":6408,"internalFormat":6408,"sampler":"sampler_0","source":"ID42","target":3553,"type":5121},"texture_ID7":{"format":6408,"internalFormat":6408,"sampler":"sampler_0","source":"ID7","target":3553,"type":5121}}}